<svg height="512pt" viewBox="0 0 512 512" width="512pt" xmlns="http://www.w3.org/2000/svg"><path d="m512 256c0 141.386719-114.613281 256-256 256s-256-114.613281-256-256 114.613281-256 256-256 256 114.613281 256 256zm0 0" fill="#ffd400"/><path d="m512 256c0-12.9375-.96875-25.648438-2.820312-38.070312l-131.929688-131.929688-272.183594 54.40625 61.4375 61.4375-61.4375 3.523438 62.386719 62.386718-62.386719 2.574219 48.445313 48.449219-48.445313 16.515625 44.375 44.371093-44.375 20.589844 108.167969 108.167969c13.910156 2.34375 28.191406 3.578125 42.765625 3.578125 141.386719 0 256-114.613281 256-256zm0 0" fill="#fdba12"/><path d="m134.75 86h242.5v340h-242.5zm0 0" fill="#4a7aff"/><path d="m134.75 255.539062h242.5v170.460938h-242.5zm0 0" fill="#0053bf"/><path d="m351 258.207031c0 45.011719-36.488281 81.5-81.5 81.5s-81.5-36.488281-81.5-81.5 36.488281-81.5 81.5-81.5 81.5 36.488281 81.5 81.5zm0 0" fill="#87c7ff"/><path d="m351 258.207031c0 45.011719-36.488281 81.5-81.5 81.5s-81.5-36.488281-81.5-81.5 36.488281-81.5 81.5-81.5 81.5 36.488281 81.5 81.5zm0 0" fill="#87c7ff"/><path d="m188.066406 255.539062c-.027344.886719-.066406 1.773438-.066406 2.667969 0 45.011719 36.488281 81.5 81.5 81.5s81.5-36.488281 81.5-81.5c0-.894531-.039062-1.78125-.066406-2.667969zm0 0" fill="#65b1fc"/><path d="m300.996094 226.914062c0 17.394532-14.101563 31.496094-31.496094 31.496094s-31.496094-14.101562-31.496094-31.496094c0-17.390624 14.101563-31.492187 31.496094-31.492187s31.496094 14.101563 31.496094 31.492187zm0 0" fill="#fff"/><path d="m282.636719 255.539062h-26.273438c4 1.839844 8.445313 2.871094 13.136719 2.871094s9.136719-1.03125 13.136719-2.871094zm0 0" fill="#dce1eb"/><path d="m215.425781 304.578125h108.148438c-4.121094-26.160156-26.757813-46.167969-54.074219-46.167969s-49.953125 20.007813-54.074219 46.167969zm0 0" fill="#dce1eb"/><g fill="#414952"><path d="m105.066406 111.746094h55.929688v28.660156h-55.929688zm0 0"/><path d="m105.066406 176.707031h55.929688v28.660157h-55.929688zm0 0"/><path d="m105.066406 241.667969h55.929688v28.664062h-55.929688zm0 0"/></g><path d="m105.066406 255.539062h55.929688v14.792969h-55.929688zm0 0" fill="#333940"/><path d="m105.066406 306.628906h55.929688v28.664063h-55.929688zm0 0" fill="#333940"/><path d="m105.066406 371.59375h55.929688v28.660156h-55.929688zm0 0" fill="#333940"/></svg>